<?xml version="1.0"?>
<!-- viewBox="0 0 962.65186 169.02562" -->
<svg
   xmlns="http://www.w3.org/2000/svg"
   version="1.1"
    width="300"
    height="53"
   viewBox="0 0 962.65186 169.02562"
   id="schreinerlogo"
   xml:space="preserve"><defs
     id="defs6"><clipPath
       id="clipPath16"><path
         d="m 0,595.28 841.89,0 L 841.89,0 0,0 0,595.28 z"
         id="path18" /></clipPath></defs><path
     d="m 137.44,119.75812 13.735,0 c 1.17875,0 1.88625,-0.125 2.2375,-1.6525 l 1.65125,-6.95875 c 0.11625,-0.46875 0.235,-0.7025 0.235,-1.17375 0,-0.945 -0.9425,-1.18125 -2.0025,-1.18125 l -15.85625,0 0,-4.8325 c 0,-5.65875 0.235,-9.545 6.60375,-9.545 4.47375,0 6.955,2.00125 8.2475,2.00125 0.47375,0 0.94375,-0.705 1.06375,-1.17375 l 2.12125,-8.2525 c 0.115,-0.35875 0.23625,-0.70875 0.23625,-1.06 0,-2.3575 -9.08,-4.24375 -14.3825,-4.24375 -14.145,0 -18.85875,9.3125 -18.85875,22.27375 l 0,4.8325 -8.37125,0 c -2,0 -2.47375,0.35625 -2.47375,2.48 l 0,6.00625 c 0,2.12375 0.47375,2.48 2.47375,2.48 l 8.37125,0 0,44.79 c 0,2.11875 0.47,2.4775 2.47375,2.4775 l 10.0225,0 c 2.00375,0 2.4725,-0.35875 2.4725,-2.4775 l 0,-44.79 z m -35.71375,35.35875 c -0.11875,-0.46875 -0.47125,-0.7075 -0.945,-0.7075 -0.7025,0 -2.24,1.05875 -4.59625,1.05875 -3.30125,0 -3.30125,-3.3 -3.30125,-7.0725 l 0,-64.23875 c 0,-2.0025 -0.23375,-2.47125 -1.1775,-2.47125 -0.2375,0 -1.2975,0.34625 -1.65125,0.34625 l -9.90125,2.01125 c -1.4125,0.35375 -2.235,0.35375 -2.235,2.11875 l 0,60.1125 c 0,10.85 0,22.75125 14.4925,22.75125 5.66,0 11.91,-1.65 11.91,-3.29875 0,-0.34875 -0.12,-0.34875 -0.2375,-0.94375 l -2.3575,-9.66625 z m -44.90875,-70.96 c 0,-2.125 -0.47125,-2.47125 -2.47375,-2.47125 l -10.96625,0 c -2.0025,0 -2.47375,0.34625 -2.47375,2.47125 l 0,55.51875 c 0,8.48625 -0.58625,16.62 -12.4925,16.62 -11.90875,0 -12.49375,-8.13375 -12.49375,-16.62 l 0,-55.51875 c 0,-2.125 -0.475,-2.47125 -2.4775,-2.47125 l -10.9575,0 C 0.47375,81.68562 0,82.03187 0,84.15687 l 0,55.51875 c 0,17.56 6.13125,29.35 28.41125,29.35 22.27875,0 28.40625,-11.79 28.40625,-29.35 l 0,-55.51875 z"
     id="path22"
     style="fill:#6f6f6e;fill-opacity:1;fill-rule:nonzero;stroke:none" /><path
     d="m 246.768,16.46712 c 0.67375,-1.3425 0.84125,-2.015 0.84125,-2.515 0,-2.86125 -16.46625,-10.25375 -32.43,-10.25375 -19.49,0 -36.96375,10.08625 -36.96375,34.27625 0,13.94625 5.71375,20.67 14.615,26.04625 17.14,10.41625 34.2775,11.92625 34.2775,26.8825 0,10.4175 -5.70875,15.45875 -15.12,15.45875 -14.45125,0 -26.88375,-7.3925 -27.89375,-7.3925 -0.66875,0 -1.51,0.66875 -1.84375,1.68 l -3.87,11.08375 c -0.33375,1.00875 -0.83625,2.1875 -0.83625,2.6925 0,2.68875 17.98,10.08125 35.11375,10.08125 21.17,0 36.29375,-14.11625 36.29375,-35.45625 0,-12.76625 -5.87875,-21.67375 -14.4475,-28.055 -14.7875,-10.92125 -34.4425,-13.27875 -34.4425,-26.0425 0,-10.085 8.06,-13.10375 15.79125,-13.10375 12.09625,0 22.51375,7.39 23.52375,7.39 0.66875,0 1.34125,-0.6725 1.84375,-1.6825 l 5.5475,-11.09 z"
     id="path26"
     style="fill:#0095a8;fill-opacity:1;fill-rule:nonzero;stroke:none" /><path
     d="m 330.03275,102.82949 c -0.335,-0.4975 -0.67375,-0.84 -1.175,-0.84 -3.02875,0 -6.3825,5.7125 -14.955,5.7125 -12.93875,0 -17.305,-8.56625 -17.305,-27.0525 0,-19.31625 5.03875,-28.055 16.4675,-28.055 8.73375,0 14.28125,6.7175 15.95875,6.7175 0.50875,0 0.8425,-0.49875 1.17625,-0.83625 l 6.21625,-10.92625 c 0.17125,-0.5 0.5075,-1.00625 0.5075,-1.51125 0,-5.2025 -14.7875,-10.2475 -23.85875,-10.2475 -24.8675,0 -39.14875,17.64 -39.14875,46.04 0,28.39125 13.9425,42.67375 37.29625,42.67375 10.0875,0 23.69125,-4.87125 23.69125,-8.89875 0,-0.5125 -0.335,-1.18 -0.5,-1.685 l -4.37125,-11.09125 z"
     id="path30"
     style="fill:#0095a8;fill-opacity:1;fill-rule:nonzero;stroke:none" /><path
     d="m 432.19038,62.337495 c 0,-14.615 -4.03125,-26.54125 -21.84125,-26.54125 -11.93,0 -18.6525,5.87625 -23.19125,9.57375 l 0,-41.84 c 0,-2.8575 -0.33375,-3.53 -1.67875,-3.53 -0.3375,0 -1.8475,0.51 -2.35,0.51 l -14.11375,2.85125 c -2.02,0.50625 -3.195,0.50625 -3.195,3.02625 l 0,112.908755 c 0,1.85374 0.335,2.35374 2.35375,2.35374 l 16.6325,0 c 2.0175,0 2.35125,-0.49999 2.35125,-2.35374 l 0,-58.806255 c 2.18625,-2.01375 7.22625,-7.06 14.285,-7.06 8.5675,0 9.4075,7.73375 9.4075,14.115 l 0,51.751255 c 0,1.85374 0.335,2.35374 2.35125,2.35374 l 16.635,0 c 2.01875,0 2.35375,-0.49999 2.35375,-2.35374 l 0,-56.958755 z"
     id="path34"
     style="fill:#0095a8;fill-opacity:1;fill-rule:nonzero;stroke:none" /><path
     d="m 492.17075,63.17862 c 2.1825,-2.35125 7.56125,-8.065 12.76875,-8.065 3.8625,0 6.8925,1.8525 7.895,1.8525 0.67375,0 1.1775,-1.01 1.3475,-1.52 l 5.2075,-14.10625 c 0.16375,-0.34125 0.3325,-1.01 0.3325,-1.6825 0,-2.18875 -4.86875,-3.86625 -9.74375,-3.86625 -11.42625,0 -17.63625,9.41125 -20.835,13.2725 -0.8375,-5.7125 -4.19375,-13.2725 -6.21625,-13.2725 -0.66875,0 -1.51125,0.505 -2.185,0.66875 l -12.76375,5.2125 c -0.84125,0.33625 -1.51375,0.84125 -1.51375,1.51 0,3.86625 4.36875,6.8925 4.36875,25.37375 l 0,50.74125 c 0,1.8475 0.3325,2.3525 2.35125,2.3525 l 16.635,0 c 2.01875,0 2.35125,-0.505 2.35125,-2.3525 l 0,-56.11875 z"
     id="path38"
     style="fill:#0095a8;fill-opacity:1;fill-rule:nonzero;stroke:none" /><path
     d="m 584.94662,70.234245 -26.38,0 c 0.50875,-4.70375 1.1825,-18.81375 14.285,-18.81375 11.59,0 12.095,11.92625 12.095,18.81375 m 22.685,11.4275 c 0,-20.32875 -5.04125,-45.87125 -33.605,-45.87125 -22.5125,0 -36.7975,18.48625 -36.7975,45.1975 0,30.911245 15.45625,43.516245 37.6375,43.516245 13.27375,0 30.07,-5.54 30.07,-9.90999 0,-0.67375 -0.16375,-1.3425 -0.5,-1.8525 L 600.23287,102.668 c -0.3275,-0.67875 -1.00625,-1.3475 -1.84875,-1.3475 -2.34875,0 -9.24125,5.54 -21.3375,5.54 -15.78875,0 -18.48,-11.587505 -18.48,-20.996255 l 45.19875,0 c 3.1925,0 3.86625,-1.01 3.86625,-4.2025"
     id="path42"
     style="fill:#0095a8;fill-opacity:1;fill-rule:nonzero;stroke:none" /><path
     d="m 668.787,40.998995 c 0,-1.84625 -0.335,-2.35125 -2.34875,-2.35125 l -31.92125,0 c -2.02125,0 -2.35875,0.505 -2.35875,2.35125 l 0,10.92125 c 0,1.8525 0.3375,2.3525 2.35875,2.3525 l 12.9325,0 0,65.023745 c 0,1.85375 0.33125,2.35125 2.3525,2.35125 l 16.63625,0 c 2.01375,0 2.34875,-0.4975 2.34875,-2.35125 l 0,-78.297495 z"
     id="path46"
     style="fill:#0095a8;fill-opacity:1;fill-rule:nonzero;stroke:none" /><path
     d="m 671.81675,13.778495 c 0,-7.72875 -6.22125,-13.7775 -13.78375,-13.7775 -7.725,0 -13.94375,6.04875 -13.94375,13.7775 0,7.73375 6.21875,13.9475 13.94375,13.9475 7.5625,0 13.78375,-6.21375 13.78375,-13.9475"
     id="path50"
     style="fill:#fbba00;fill-opacity:1;fill-rule:nonzero;stroke:none" /><path
     d="m 775.98425,60.32212 c 0,-20.32875 -12.605,-24.53125 -21.84125,-24.53125 -13.27875,0 -20.8375,7.2225 -25.7075,11.595 -1.8525,-7.90125 -3.19625,-11.595 -5.37875,-11.595 -0.67375,0 -1.51625,0.1675 -2.51875,0.505 l -12.76625,4.1975 c -1.1825,0.3425 -1.85625,1.01 -1.85625,1.8525 0,3.86125 3.20125,2.52 3.20125,26.21 l 0,50.74125 c 0,1.8475 0.33375,2.35375 2.35125,2.35375 l 16.6275,0 c 2.0175,0 2.35875,-0.50625 2.35875,-2.35375 l 0,-58.975 c 2.1775,-2.02 7.7225,-6.89125 14.7825,-6.89125 8.5675,0 9.41,7.73375 9.41,14.115 l 0,51.75125 c 0,1.8475 0.33375,2.35375 2.3525,2.35375 l 16.63125,0 c 2.015,0 2.35375,-0.50625 2.35375,-2.35375 l 0,-58.975 z"
     id="path54"
     style="fill:#0095a8;fill-opacity:1;fill-rule:nonzero;stroke:none" /><path
     d="m 857.476,70.234245 -26.38,0 c 0.50125,-4.70375 1.175,-18.81375 14.2775,-18.81375 11.5925,0 12.1025,11.92625 12.1025,18.81375 m 22.68125,11.4275 c 0,-20.32875 -5.0425,-45.87125 -33.60375,-45.87125 -22.5175,0 -36.7975,18.48625 -36.7975,45.1975 0,30.911245 15.45875,43.516245 37.635,43.516245 13.27375,0 30.075,-5.54 30.075,-9.90999 0,-0.67375 -0.16875,-1.3425 -0.5025,-1.8525 l -4.2,-10.07375 c -0.33625,-0.67875 -1.0075,-1.3475 -1.85,-1.3475 -2.35375,0 -9.23875,5.54 -21.3375,5.54 -15.79625,0 -18.48,-11.587505 -18.48,-20.996255 l 45.19375,0 c 3.18875,0 3.8675,-1.01 3.8675,-4.2025"
     id="path58"
     style="fill:#0095a8;fill-opacity:1;fill-rule:nonzero;stroke:none" /><path
     d="m 935.09562,63.17862 c 2.19,-2.35125 7.56125,-8.065 12.77375,-8.065 3.8625,0 6.88875,1.8525 7.89,1.8525 0.67375,0 1.18,-1.01 1.3475,-1.52 l 5.2075,-14.10625 c 0.16875,-0.34125 0.3375,-1.01 0.3375,-1.6825 0,-2.18875 -4.87125,-3.86625 -9.74375,-3.86625 -11.42625,0 -17.64375,9.41125 -20.8375,13.2725 -0.8375,-5.7125 -4.19625,-13.2725 -6.21375,-13.2725 -0.67375,0 -1.51625,0.505 -2.19,0.66875 l -12.76125,5.2125 c -0.84125,0.33625 -1.515,0.84125 -1.515,1.51 0,3.86625 4.3675,6.8925 4.3675,25.37375 l 0,50.74125 c 0,1.8475 0.33375,2.3525 2.355,2.3525 l 16.62875,0 c 2.02125,0 2.35375,-0.505 2.35375,-2.3525 l 0,-56.11875 z"
     id="path62"
     style="fill:#0095a8;fill-opacity:1;fill-rule:nonzero;stroke:none" /><path
     d="m 548.765,154.74349 c 0.46125,2.26125 0.78625,5.26125 1.015,7.8 l 0.0937,0 c 0.0462,-1.755 0.505,-5.4925 0.87625,-7.20125 l 2.12375,-10.34 c 0.13875,-0.69125 0.18625,-0.7375 0.87625,-0.7375 l 4.10875,0 c 0.69125,0 0.7375,0.0463 0.8775,0.7375 l 2.03125,10.34 c 0.3675,1.98375 0.83,5.21625 0.87625,7.20125 l 0.09,0 c 0.2325,-2.585 0.46375,-5.26375 1.0175,-7.8 l 2.215,-9.97125 c 0.0925,-0.46125 0.27875,-0.9225 0.6475,-0.9225 0.1825,0 0.5975,0.0438 0.73625,0.0438 l 3.14,0.4175 c 0.69375,0.0937 1.01625,0.14 1.01625,0.46125 0,0.18625 -0.14,0.50875 -0.2325,0.8775 l -6.4137,21.1862 c -0.185,0.6 -0.2775,0.64625 -0.87875,0.64625 l -3.59875,0 c -0.6,0 -0.74,-0.2775 -0.8325,-0.73875 l -2.26,-11.72375 c -0.27625,-1.4775 -0.51125,-3.8775 -0.60125,-5.16875 l -0.0925,0 c -0.09,1.29125 -0.46125,3.69125 -0.83,5.16875 l -2.77125,11.72375 c -0.09,0.46125 -0.23,0.73875 -0.83,0.73875 l -3.60125,0 c -0.5975,0 -0.69125,-0.0462 -0.87625,-0.64625 l -5.54,-21.18625 c -0.0925,-0.3225 -0.1825,-0.6475 -0.22875,-0.8775 0,-0.32125 0.32375,-0.3675 1.015,-0.46125 l 3.4625,-0.4175 c 0.13625,0 0.5975,-0.0438 0.78375,-0.0438 0.32375,0 0.5075,0.46125 0.6,0.9225 l 1.985,9.97125 z"
     id="path66"
     style="fill:#6f6f6e;fill-opacity:1;fill-rule:nonzero;stroke:none" /><path
     d="m 579.556,154.74349 c 0.46125,2.26125 0.78625,5.26125 1.015,7.8 l 0.0937,0 c 0.0462,-1.755 0.5075,-5.4925 0.87875,-7.20125 l 2.12125,-10.34 c 0.13875,-0.69125 0.18625,-0.7375 0.87625,-0.7375 l 4.11125,0 c 0.68875,0 0.735,0.0463 0.875,0.7375 l 2.03125,10.34 c 0.37,1.98375 0.8325,5.21625 0.87875,7.20125 l 0.09,0 c 0.2325,-2.585 0.46125,-5.26375 1.015,-7.8 l 2.2175,-9.97125 c 0.09,-0.46125 0.27625,-0.9225 0.64625,-0.9225 0.18375,0 0.59875,0.0438 0.7375,0.0438 l 3.1375,0.4175 c 0.69375,0.0937 1.01875,0.14 1.01875,0.46125 0,0.18625 -0.1425,0.50875 -0.2325,0.8775 l -6.41625,21.18625 c -0.185,0.6 -0.27625,0.64625 -0.87875,0.64625 l -3.59875,0 c -0.6,0 -0.7375,-0.2775 -0.8325,-0.73875 l -2.26,-11.72375 c -0.27625,-1.4775 -0.50875,-3.8775 -0.60125,-5.16875 l -0.09,0 c -0.0925,1.29125 -0.46125,3.69125 -0.83,5.16875 l -2.77125,11.72375 c -0.0925,0.46125 -0.23,0.73875 -0.83,0.73875 l -3.60125,0 c -0.6,0 -0.69125,-0.0462 -0.87625,-0.64625 l -5.54,-21.18625 c -0.0925,-0.3225 -0.1825,-0.6475 -0.22875,-0.8775 0,-0.32125 0.31875,-0.3675 1.0125,-0.46125 l 3.465,-0.4175 c 0.13625,0 0.5975,-0.0438 0.78375,-0.0438 0.32125,0 0.5075,0.46125 0.5975,0.9225 l 1.985,9.97125 z"
     id="path70"
     style="fill:#6f6f6e;fill-opacity:1;fill-rule:nonzero;stroke:none" /><path
     d="m 610.3495,154.74349 c 0.45875,2.26125 0.78375,5.26125 1.015,7.8 l 0.0912,0 c 0.0462,-1.755 0.5075,-5.4925 0.87875,-7.20125 l 2.12125,-10.34 c 0.13875,-0.69125 0.18375,-0.7375 0.87625,-0.7375 l 4.10875,0 c 0.69125,0 0.7375,0.0463 0.8775,0.7375 l 2.03125,10.34 c 0.36875,1.98375 0.8325,5.21625 0.87875,7.20125 l 0.09,0 c 0.2325,-2.585 0.46125,-5.26375 1.01625,-7.8 l 2.21625,-9.97125 c 0.09,-0.46125 0.27625,-0.9225 0.6475,-0.9225 0.1825,0 0.5975,0.0438 0.73375,0.0438 l 3.14,0.4175 c 0.69375,0.0937 1.01875,0.14 1.01875,0.46125 0,0.18625 -0.1425,0.50875 -0.2325,0.8775 l -6.41625,21.18625 c -0.185,0.6 -0.275,0.64625 -0.87875,0.64625 l -3.59875,0 c -0.6,0 -0.74,-0.2775 -0.8325,-0.73875 l -2.26,-11.72375 c -0.27625,-1.4775 -0.50875,-3.8775 -0.60125,-5.16875 l -0.09,0 c -0.09,1.29125 -0.46125,3.69125 -0.83,5.16875 l -2.77125,11.72375 c -0.0925,0.46125 -0.2325,0.73875 -0.83,0.73875 l -3.60125,0 c -0.5975,0 -0.69375,-0.0462 -0.87625,-0.64625 l -5.54,-21.18625 c -0.0925,-0.3225 -0.1825,-0.6475 -0.22875,-0.8775 0,-0.32125 0.32,-0.3675 1.0125,-0.46125 l 3.465,-0.4175 c 0.13625,0 0.5975,-0.0438 0.78375,-0.0438 0.32125,0 0.5075,0.46125 0.5975,0.9225 l 1.9875,9.97125 z"
     id="path74"
     style="fill:#6f6f6e;fill-opacity:1;fill-rule:nonzero;stroke:none" /><path
     d="m 636.016,167.85149 c -2.35375,0 -4.385,-1.93875 -4.385,-4.385 0,-2.44625 2.03125,-4.385 4.385,-4.385 2.4025,0 4.385,1.93875 4.385,4.385 0,2.44625 -1.9825,4.385 -4.385,4.385"
     id="path78"
     style="fill:#6f6f6e;fill-opacity:1;fill-rule:nonzero;stroke:none" /><path
     d="m 661.17475,167.71224 c -0.27875,0.0925 -0.5075,0.13875 -0.69375,0.13875 -0.5975,0 -0.96875,-0.87625 -1.47625,-2.72375 -1.245,1.1075 -3.41625,2.72375 -7.06375,2.72375 -2.53875,0 -5.99875,-1.15375 -5.99875,-6.74 l 0,-15.87625 c 0,-0.6475 0.3225,-0.69375 0.8775,-0.8325 l 3.87625,-0.78375 c 0.14,0 0.60125,-0.1375 0.7375,-0.1375 0.27875,0 0.37125,0.18375 0.37125,0.9675 l 0,14.6775 c 0,1.755 0.23125,3.87625 2.5825,3.87625 1.93875,0 3.465,-1.0125 4.0625,-1.4275 l 0,-16.34 c 0,-0.6475 0.3225,-0.69375 0.87625,-0.8325 l 3.8775,-0.78375 c 0.13875,0 0.60125,-0.1375 0.78625,-0.1375 0.2325,0 0.325,0.18375 0.325,0.9675 l 0,14.40125 c 0,6.50875 0.87625,6.14 0.87625,7.2 0,0.23125 -0.18625,0.4175 -0.5075,0.51 l -3.50875,1.1525 z"
     id="path82"
     style="fill:#6f6f6e;fill-opacity:1;fill-rule:nonzero;stroke:none" /><path
     d="m 680.88662,166.18887 c 0.0462,0.2325 0.0925,0.2325 0.0925,0.36875 0,0.64625 -2.44625,1.29625 -4.66,1.29625 -5.67875,0 -5.67875,-4.6625 -5.67875,-8.91125 l 0,-23.54 c 0,-0.69375 0.3225,-0.69375 0.87875,-0.83 l 3.87625,-0.78625 c 0.1375,0 0.5525,-0.13875 0.645,-0.13875 0.36875,0 0.46125,0.185 0.46125,0.97125 l 0,25.15375 c 0,1.4775 0,2.77125 1.29125,2.77125 0.92625,0 1.52375,-0.4175 1.8025,-0.4175 0.1825,0 0.3225,0.0925 0.36875,0.27875 l 0.9225,3.78375 z"
     id="path86"
     style="fill:#6f6f6e;fill-opacity:1;fill-rule:nonzero;stroke:none" /><path
     d="m 692.10487,166.09849 c 0,0.83 -0.1825,0.96625 -0.96875,0.96625 l -3.92375,0 c -0.78625,0 -0.96875,-0.13625 -0.96875,-0.96625 l 0,-17.54125 -3.27875,0 c -0.78375,0 -0.97,-0.14 -0.97,-0.97 l 0,-2.3525 c 0,-0.83 0.18625,-0.97 0.97,-0.97 l 3.27875,0 0,-1.89125 c 0,-5.07875 1.845,-8.72375 7.385,-8.72375 2.0775,0 5.6325,0.7375 5.6325,1.66 0,0.13875 -0.0488,0.27625 -0.0963,0.4175 l -0.83,3.23 c -0.0438,0.18375 -0.22875,0.46125 -0.415,0.46125 -0.5075,0 -1.47375,-0.78625 -3.23,-0.78625 -2.4925,0 -2.585,1.52625 -2.585,3.74125 l 0,1.89125 5.26375,0 c 0.415,0 0.78375,0.09 0.78375,0.46125 0,0.18375 -0.0462,0.27875 -0.0925,0.46125 l -0.6475,2.725 c -0.13625,0.59875 -0.415,0.645 -0.87625,0.645 l -4.43125,0 0,17.54125 z"
     id="path90"
     style="fill:#6f6f6e;fill-opacity:1;fill-rule:nonzero;stroke:none" /><path
     d="m 713.52575,156.95787 c 0,0.83 -0.13875,0.96875 -0.97125,0.96875 l -11.2625,0 c -0.83,0 -0.97,-0.13875 -0.97,-0.96875 l 0,-3.36875 c 0,-0.83 0.14,-0.97 0.97,-0.97 l 11.2625,0 c 0.8325,0 0.97125,0.14 0.97125,0.97 l 0,3.36875 z"
     id="path94"
     style="fill:#6f6f6e;fill-opacity:1;fill-rule:nonzero;stroke:none" /><path
     d="m 731.807,148.87924 c -0.0925,0.2325 -0.325,0.415 -0.37125,0.415 -0.13625,0 -2.4,-1.19875 -5.35375,-1.19875 -1.755,0 -3.0475,0.6475 -3.0475,2.21625 0,2.49375 4.15625,2.3075 7.4325,4.47875 1.79875,1.1975 3.09,2.95125 3.09,5.62875 0,4.24625 -2.9975,7.4325 -7.89,7.4325 -3.4175,0 -8.6775,-1.75625 -8.6775,-3.00125 0,-0.13875 0.18375,-0.415 0.23,-0.6 l 1.01625,-2.6325 c 0.0925,-0.22875 0.1825,-0.415 0.3675,-0.415 0.18625,0 3.74125,2.03125 6.6025,2.03125 1.52375,0 2.815,-0.64625 2.815,-2.30625 0,-2.67875 -4.52375,-2.67875 -7.57125,-4.71 -1.38375,-0.9225 -2.7225,-2.53875 -2.7225,-5.215 0,-4.20125 3.18375,-7.52125 8.16875,-7.52125 2.815,0 7.2,1.19875 7.2,2.26 0,0.14 -0.13625,0.415 -0.22875,0.59875 l -1.06,2.53875 z"
     id="path98"
     style="fill:#6f6f6e;fill-opacity:1;fill-rule:nonzero;stroke:none" /><path
     d="m 753.6405,164.94374 c 0.0462,0.13625 0.13625,0.3225 0.13625,0.46125 0,1.10625 -3.7375,2.44875 -6.50625,2.44875 -6.41625,0 -10.24875,-3.925 -10.24875,-11.72875 0,-7.7975 3.92625,-12.64375 10.7575,-12.64375 2.4925,0 6.555,1.3825 6.555,2.815 0,0.13625 -0.095,0.27625 -0.14,0.415 l -1.70875,2.9975 c -0.09,0.0937 -0.1825,0.2325 -0.3225,0.2325 -0.46125,0 -1.985,-1.84625 -4.38375,-1.84625 -3.14,0 -4.525,2.4 -4.525,7.70875 0,5.0775 1.19875,7.43125 4.75375,7.43125 2.35625,0 3.27625,-1.57 4.10875,-1.57 0.14,0 0.2325,0.095 0.3225,0.23125 l 1.20125,3.0475 z"
     id="path102"
     style="fill:#6f6f6e;fill-opacity:1;fill-rule:nonzero;stroke:none" /><path
     d="m 776.35287,166.42074 c 0,0.5075 -0.09,0.645 -0.6475,0.645 l -4.5675,0 c -0.55375,0 -0.64625,-0.1375 -0.64625,-0.645 l 0,-14.21625 c 0,-1.755 -0.23,-3.8775 -2.58625,-3.8775 -1.93875,0 -3.3225,1.385 -3.9225,1.93875 l 0,16.155 c 0,0.5075 -0.0937,0.645 -0.645,0.645 l -4.57,0 c -0.555,0 -0.645,-0.1375 -0.645,-0.645 l 0,-31.0175 c 0,-0.69375 0.3225,-0.69375 0.87375,-0.8325 l 3.88,-0.78375 c 0.13625,0 0.55125,-0.1375 0.64375,-0.1375 0.36875,0 0.4625,0.18375 0.4625,0.9675 l 0,11.49375 c 1.2475,-1.01625 3.0925,-2.63 6.36875,-2.63 4.8925,0 6.00125,3.2775 6.00125,7.2925 l 0,15.6475 z"
     id="path106"
     style="fill:#6f6f6e;fill-opacity:1;fill-rule:nonzero;stroke:none" /><path
     d="m 788.682,166.42074 c 0,0.5075 -0.0925,0.645 -0.6475,0.645 l -4.57,0 c -0.55125,0 -0.64375,-0.1375 -0.64375,-0.645 l 0,-13.94 c 0,-5.07625 -1.19875,-5.90875 -1.19875,-6.97125 0,-0.1825 0.18,-0.32125 0.4125,-0.415 l 3.5075,-1.43 c 0.18625,-0.0463 0.415,-0.18375 0.60125,-0.18375 0.55125,0 1.47375,2.07625 1.70625,3.645 0.87625,-1.06125 2.585,-3.645 5.7225,-3.645 1.34,0 2.67875,0.46 2.67875,1.06 0,0.18625 -0.0438,0.36875 -0.0937,0.46125 l -1.4275,3.8775 c -0.0462,0.13875 -0.18875,0.415 -0.37125,0.415 -0.27875,0 -1.10875,-0.5075 -2.1675,-0.5075 -1.43375,0 -2.91,1.57125 -3.50875,2.21625 l 0,15.4175 z"
     id="path110"
     style="fill:#6f6f6e;fill-opacity:1;fill-rule:nonzero;stroke:none" /><path
     d="m 815.40812,164.61899 c 0.0925,0.13875 0.13875,0.325 0.13875,0.5075 0,1.20125 -4.61375,2.725 -8.26125,2.725 -6.09375,0 -10.34125,-3.4625 -10.34125,-11.95625 0,-7.33875 3.9225,-12.41375 10.10875,-12.41375 7.85,0 9.23125,7.01375 9.23125,12.5975 0,0.87875 -0.1825,1.1575 -1.06125,1.1575 l -12.415,0 c 0,2.5825 0.74,5.76875 5.075,5.76875 3.32625,0 5.2175,-1.52375 5.865,-1.52375 0.22875,0 0.415,0.18625 0.505,0.36875 l 1.155,2.76875 z m -5.35375,-11.6775 c 0,-1.89125 -0.14,-5.16875 -3.3225,-5.16875 -3.59875,0 -3.7875,3.8775 -3.92375,5.16875 l 7.24625,0 z"
     id="path114"
     style="fill:#6f6f6e;fill-opacity:1;fill-rule:nonzero;stroke:none" /><path
     d="m 828.93587,166.42074 c 0,0.5075 -0.09,0.645 -0.645,0.645 l -4.5725,0 c -0.55125,0 -0.64375,-0.1375 -0.64375,-0.645 l 0,-17.86375 -3.555,0 c -0.5525,0 -0.6475,-0.13875 -0.6475,-0.645 l 0,-3.0025 c 0,-0.5075 0.095,-0.645 0.6475,-0.645 l 8.77125,0 c 0.555,0 0.645,0.1375 0.645,0.645 l 0,21.51125 z m -2.95375,-25.15625 c -2.12375,0 -3.83125,-1.70875 -3.83125,-3.83 0,-2.125 1.7075,-3.785 3.83125,-3.785 2.0775,0 3.78375,1.66 3.78375,3.785 0,2.12125 -1.70625,3.83 -3.78375,3.83"
     id="path118"
     style="fill:#6f6f6e;fill-opacity:1;fill-rule:nonzero;stroke:none" /><path
     d="m 854.23137,166.42074 c 0,0.5075 -0.09,0.645 -0.6475,0.645 l -4.5675,0 c -0.55375,0 -0.64625,-0.1375 -0.64625,-0.645 l 0,-14.21625 c 0,-1.755 -0.23,-3.8775 -2.58625,-3.8775 -1.93875,0 -3.45875,1.33875 -4.0625,1.8925 l 0,16.20125 c 0,0.5075 -0.09,0.645 -0.64375,0.645 l -4.57125,0 c -0.55125,0 -0.64375,-0.1375 -0.64375,-0.645 l 0,-13.94 c 0,-6.50875 -0.87875,-6.14 -0.87875,-7.2 0,-0.2325 0.185,-0.4175 0.51,-0.5075 l 3.505,-1.155 c 0.27875,-0.0925 0.50875,-0.1375 0.69125,-0.1375 0.60375,0 0.9725,1.01375 1.48,3.18375 1.3375,-1.19875 3.415,-3.18375 7.06,-3.18375 2.53875,0 6.00125,1.1525 6.00125,6.73875 l 0,16.20125 z"
     id="path122"
     style="fill:#6f6f6e;fill-opacity:1;fill-rule:nonzero;stroke:none" /><path
     d="m 877.82262,164.61899 c 0.09,0.13875 0.13625,0.325 0.13625,0.5075 0,1.20125 -4.61375,2.725 -8.26125,2.725 -6.09125,0 -10.33875,-3.4625 -10.33875,-11.95625 0,-7.33875 3.9225,-12.41375 10.10625,-12.41375 7.85,0 9.23375,7.01375 9.23375,12.5975 0,0.87875 -0.1825,1.1575 -1.06125,1.1575 l -12.415,0 c 0,2.5825 0.7375,5.76875 5.075,5.76875 3.32375,0 5.215,-1.52375 5.8625,-1.52375 0.23,0 0.415,0.18625 0.5075,0.36875 l 1.155,2.76875 z m -5.35375,-11.6775 c 0,-1.89125 -0.14,-5.16875 -3.3225,-5.16875 -3.60125,0 -3.7875,3.8775 -3.92375,5.16875 l 7.24625,0 z"
     id="path126"
     style="fill:#6f6f6e;fill-opacity:1;fill-rule:nonzero;stroke:none" /><path
     d="m 889.6415,166.42074 c 0,0.5075 -0.0925,0.645 -0.6475,0.645 l -4.57,0 c -0.55125,0 -0.64375,-0.1375 -0.64375,-0.645 l 0,-13.94 c 0,-5.07625 -1.19875,-5.90875 -1.19875,-6.97125 0,-0.1825 0.1825,-0.32125 0.415,-0.415 l 3.505,-1.43 c 0.18625,-0.0463 0.415,-0.18375 0.60125,-0.18375 0.55375,0 1.47625,2.07625 1.70875,3.645 0.87625,-1.06125 2.5825,-3.645 5.7225,-3.645 1.3375,0 2.67875,0.46 2.67875,1.06 0,0.18625 -0.0462,0.36875 -0.0937,0.46125 l -1.43,3.8775 c -0.0462,0.13875 -0.18625,0.415 -0.36875,0.415 -0.27875,0 -1.11125,-0.5075 -2.17,-0.5075 -1.43125,0 -2.90875,1.57125 -3.50875,2.21625 l 0,15.4175 z"
     id="path130"
     style="fill:#6f6f6e;fill-opacity:1;fill-rule:nonzero;stroke:none" /><path
     d="m 900.3055,167.85149 c -2.35375,0 -4.385,-1.93875 -4.385,-4.385 0,-2.44625 2.03125,-4.385 4.385,-4.385 2.4025,0 4.385,1.93875 4.385,4.385 0,2.44625 -1.9825,4.385 -4.385,4.385"
     id="path134"
     style="fill:#6f6f6e;fill-opacity:1;fill-rule:nonzero;stroke:none" /><path
     d="m 925.00287,167.66587 c -0.185,0.0462 -0.415,0.185 -0.6,0.185 -0.415,0 -1.10875,-1.61625 -1.34125,-2.77 -0.7375,0.6925 -2.76875,2.77 -6.09125,2.77 -5.26375,0 -7.8925,-4.2475 -7.8925,-11.26125 0,-8.72375 3.1375,-13.10875 8.8625,-13.10875 2.4925,0 3.55375,0.875 4.29125,1.3825 l 0,-9.4625 c 0,-0.69125 0.325,-0.69125 0.87625,-0.83125 l 3.88,-0.78375 c 0.13625,0 0.55125,-0.13625 0.645,-0.13625 0.3675,0 0.46375,0.18375 0.46375,0.9675 l 0,25.2025 c 0,4.4775 0.83,5.0775 0.83,6 0,0.18625 -0.18625,0.325 -0.415,0.415 l -3.50875,1.43125 z m -2.77125,-18.6475 c -0.415,-0.2325 -1.19875,-0.9225 -3.14,-0.9225 -3.45875,0 -4.1525,2.585 -4.1525,7.7075 0,5.2175 0.87625,7.43125 3.88,7.43125 2.0775,0 2.86125,-1.015 3.4125,-1.61375 l 0,-12.6025 z"
     id="path138"
     style="fill:#6f6f6e;fill-opacity:1;fill-rule:nonzero;stroke:none" /><path
     d="m 951.4555,164.61899 c 0.09,0.13875 0.13625,0.325 0.13625,0.5075 0,1.20125 -4.61375,2.725 -8.26125,2.725 -6.09125,0 -10.33875,-3.4625 -10.33875,-11.95625 0,-7.33875 3.9225,-12.41375 10.10625,-12.41375 7.85,0 9.23375,7.01375 9.23375,12.5975 0,0.87875 -0.1825,1.1575 -1.06125,1.1575 l -12.415,0 c 0,2.5825 0.7375,5.76875 5.075,5.76875 3.32375,0 5.215,-1.52375 5.8625,-1.52375 0.23,0 0.415,0.18625 0.5075,0.36875 l 1.155,2.76875 z m -5.35375,-11.6775 c 0,-1.89125 -0.14,-5.16875 -3.3225,-5.16875 -3.60125,0 -3.7875,3.8775 -3.92375,5.16875 l 7.24625,0 z"
     id="path142"
     style="fill:#6f6f6e;fill-opacity:1;fill-rule:nonzero;stroke:none" /></svg>